<svg width="1527" height="204" viewBox="0 0 1527 204" fill="none" xmlns="http://www.w3.org/2000/svg">
<path d="M1283 0V204H1323V122L1324 121H1485L1487 123V203L1488 204H1526L1527 203V0H1487V81L1485 83H1325L1323 81V0H1283Z" fill="white"/>
<path d="M1045 0L1044 1H1042L1041 2H1039L1038 3H1036L1035 4H1034L1033 5H1032L1030 7H1029L1025 11H1024V12L1023 13H1022V14L1019 17V18L1017 20V21L1016 22V23L1015 24V25L1014 26V28L1013 29V31L1012 32V170L1013 171V174L1014 175V177L1015 178V179L1016 180V182L1018 184V185L1020 187V188L1028 196H1029L1031 198H1032L1033 199H1034L1035 200H1036L1037 201H1039L1040 202H1042L1043 203H1047L1048 204H1219L1220 203H1225L1226 202H1228L1229 201H1231L1232 200H1233L1234 199H1235L1236 198H1237L1239 196H1240L1249 187V186L1250 185V184L1252 182V180L1254 178V176L1255 175V172L1256 171V122H1216V164L1215 165H1053L1052 164V41L1053 40V39L1054 38H1215L1216 39V81H1256V32L1255 31V29L1254 28V26L1253 25V24L1252 23V22L1251 21V20L1249 18V17L1247 15V14L1242 9H1241L1238 6H1237L1236 5H1235L1234 4H1232L1230 2H1227L1226 1H1224L1223 0H1045Z" fill="white"/>
<path d="M773 0V204H990L991 203V165H814L813 164V122L814 121H988V83H815L813 81V39L814 38H991V0H773Z" fill="white"/>
<path d="M515 0V38H616L617 39V204H655L656 203L657 204V39L658 38H759L760 37V35L759 34L760 33V2L759 1V0H515Z" fill="white"/>
<path d="M297 0L296 1H294L293 2H290L289 3H288L287 4H285L283 6H282L281 7H280L270 17V18L269 19V20L268 21V22L267 23V24L266 25V26L265 27V29L264 30V33L263 34V87L264 88V90L265 91V94L266 95V96L267 97V98L268 99V100L269 101V102L271 104V105L278 112H279L281 114H282L284 116H285L286 117H287L288 118H290L291 119H292L293 120H298L299 121H466L467 122V164L466 165H304L303 164V137H263V169L264 170V173L265 174V177L266 178V179L267 180V181L268 182V183L270 185V186L272 188V189L277 194H278L281 197H282L284 199H285L286 200H287L288 201H290L291 202H294L295 203H299L300 204H301L302 203H303L304 204H471L472 203H476L477 202H480L481 201H482L483 200H485L487 198H488L490 196H491L501 186V185L502 184V183L503 182V181L504 180V179L505 178V176L506 175V174L507 173V163L508 162V124L507 123V113L506 112V111L505 110V108L504 107V106L503 105V104L501 102V101L499 99V98L492 91H491L489 89H488L486 87H485L484 86H482L481 85H479L478 84H476L475 83H305L303 81V39L304 38H466L467 39V67H507L508 66L507 65V64L508 63V40L507 39V31L506 30V28L505 27V25L504 24V23L503 22V21L501 19V18L499 16V15L493 9H492L489 6H488L487 5H486L485 4H484L483 3H482L481 2H478L477 1H475L474 0H297Z" fill="white"/>
<path d="M0 0V102L1 103V112L2 113V117L3 118V120L4 121V123L5 124V125L6 126V127L7 128V129L8 130V131L12 135V136L20 144H21L24 147H25L28 150H29L31 152H32L35 155H36L40 159H41L43 161H44L47 164H48L50 166H51L54 169H55L57 171H58L62 175H63L65 177H66L69 180H70L73 183H74L76 185H77L80 188H81L84 191H85L88 194H89L91 196H92L94 198H95L99 202H100L101 203H102L103 204H142L143 203H144L146 201H147L150 198H151L153 196H154L158 192H159L161 190H162L165 187H166L168 185H169L173 181H174L176 179H177L179 177H180L184 173H185L187 171H188L190 169H191V168L192 167H193L194 166H195L198 163H199L202 160H203L205 158H206L210 154H211L213 152H214L217 149H218L221 146H222L225 143H226L233 136V135L236 132V131L238 129V128L239 127V126L240 125V124L241 123V121L242 120V117L243 116V112L244 111V0H204V102L203 103V106L202 107V109L201 110V111L200 112V113L199 114V115L194 120H193L188 125H187L185 127H184L182 129H181L179 131H178L174 135H173L171 137H170L166 141H165L163 143H162L159 146H158L154 150H153L151 152H150L146 156H145L143 158H142L139 161H138L135 164H134L131 167H130L126 171H125L123 173H122L120 171H119L117 169H116L112 165H111L108 162H107L103 158H102L100 156H99L95 152H94L92 150H91L87 146H86L82 142H81L79 140H78L75 137H74L71 134H70L67 131H66L64 129H63L60 126H59L56 123H55L52 120H51L47 116V115L45 113V112L44 111V110L43 109V107L42 106V105L41 104V0H0Z" fill="white"/>
</svg>
