<svg width="1520" height="1311" viewBox="0 0 1520 1311" fill="none" xmlns="http://www.w3.org/2000/svg">
<path d="M0 3V4L2 6V7L3 8V9L4 10V11L5 12V13L7 15V16L8 17V18L10 20V21L12 23V25L14 27V28L15 29V30L16 31V32L18 34V35L20 37V39L21 40V41L23 43V44L25 46V47L26 48V49L27 50V51L29 53V54L30 55V56L31 57V58L33 60V61L34 62V63L35 64V65L37 67V68L38 69V70L39 71V72L41 74V75L42 76V77L44 79V81L46 83V84L48 86V87L49 88V89L50 90V91L52 93V94L53 95V96L54 97V98L56 100V101L57 102V103L58 104V105L60 107V108L61 109V110L62 111V112L64 114V115L65 116V117L67 119V121L69 123V124L71 126V127L72 128V129L73 130V131L74 132V133L76 135V136L77 137V138L79 140V141L80 142V143L81 144V145L82 146V147L84 149V150L85 151V152L86 153V154L88 156V157L89 158V159L90 160V161L92 163V164L94 166V167L95 168V169L96 170V171L97 172V173L99 175V176L100 177V178L101 179V180L103 182V183L104 184V185L105 186V187L107 189V190L108 191V192L110 194V195L111 196V197L113 199V200L114 201V202L115 203V204L116 205V206L118 208V209L119 210V211L120 212V213L122 215V216L123 217V218L124 219V220L126 222V223L128 225V227L130 229V230L131 231V232L132 233V234L134 236V237L135 238V239L137 241V242L138 243V244L139 245V246L141 248V249L142 250V251L143 252V253L145 255V256L146 257V258L147 259V260L149 262V263L151 265V267L153 269V270L154 271V272L155 273V274L157 276V277L158 278V279L159 280V281L161 283V284L162 285V286L164 288V289L165 290V291L166 292V293L168 295V296L169 297V298L170 299V300L172 302V303L173 304V305L174 306V307L176 309V310L177 311V312L179 314V315L180 316V317L181 318V319L183 321V322L184 323V324L185 325V326L187 328V329L188 330V331L189 332V333L191 335V336L192 337V338L194 340V341L195 342V343L196 344V345L198 347V348L199 349V350L200 351V352L202 354V355L203 356V357L204 358V359L206 361V362L207 363V364L208 365V366L210 368V369L211 370V371L213 373V374L214 375V376L215 377V378L216 379V380L218 382V383L219 384V385L221 387V389L223 391V392L225 394V395L226 396V397L227 398V399L229 401V402L230 403V404L231 405V406L233 408V409L234 410V411L235 412V413L236 414V415L238 417V418L239 419V420L240 421V422L242 424V425L244 427V429L246 431V432L248 434V435L249 436V437L250 438V439L252 441V442L253 443V444L254 445V446L255 447V448L257 450V451L258 452V453L259 454V455L261 457V458L262 459V460L264 462V463L265 464V465L267 467V468L268 469V470L269 471V472L270 473V474L272 476V477L273 478V479L274 480V481L276 483V484L277 485V486L278 487V488L280 490V491L282 493V495L284 497V498L285 499V500L287 502V503L288 504V505L289 506V507L290 508V509L292 511V512L293 513V514L295 516V517L296 518V519L297 520V521L299 523V524L300 525V526L301 527V528L303 530V531L305 533V534L306 535V537L308 539V540L310 542V543L311 544V545L312 546V547L314 549V550L315 551V552L316 553V554L318 556V557L319 558V559L320 560V561L322 563V564L323 565V566L324 567V568L326 570V571L327 572V573L328 574V575L330 577V578L331 579V580L333 582V583L334 584V585L335 586V587L337 589V590L338 591V592L339 593V594L341 596V597L342 598V599L343 600V601L345 603V604L346 605V606L347 607V608L349 610V611L350 612V613L352 615V616L353 617V618L354 619V620L356 622V623L357 624V625L358 626V627L360 629V630L361 631V632L362 633V634L364 636V637L365 638V639L366 640V641L367 642V643L369 645V646L370 647V648L372 650V651L373 652V653L374 654V655L375 656V657L377 659V660L379 662V663L380 664V665L381 666V667L383 669V670L384 671V672L385 673V674L387 676V677L388 678V679L389 680V681L390 682V683L392 685V686L393 687V688L394 689V690L396 692V693L398 695V697L400 699V700L402 702V703L403 704V705L404 706V707H405L406 706V705L408 703V702L409 701V700L410 699V698L412 696V695L413 694V693L414 692V691L416 689V688L417 687V686L418 685V684L419 683V682L421 680V679L423 677V676L424 675V674L425 673V672L427 670V669L428 668V667L429 666V665L431 663V662L432 661V660L433 659V658L435 656V655L436 654V653L437 652V651L438 650V649L440 647V646L442 644V643L443 642V641L444 640V639L446 637V636L447 635V634L448 633V632L450 630V629L451 628V627L453 625V624L454 623V622L455 621V620L457 618V617L458 616V615L459 614V613L461 611V610L463 608V606L465 604V603L467 601V600L468 599V598L469 597V596L471 594V593L472 592V591L473 590V589L474 588V587L476 585V584L477 583V582L479 580V579L480 578V577L482 575V573L484 571V570L486 568V567L487 566V565L488 564V563L490 561V560L491 559V558L493 556V555L494 554V553L495 552V551L497 549V548L498 547V546L499 545V544L501 542V541L502 540V539L503 538V537L505 535V534L506 533V532L508 530V529L509 528V527L510 526V525L511 524V523L513 521V520L514 519V518L516 516V515L518 513V511L520 509V508L521 507V506L522 505V504L524 502V501L525 500V499L527 497V496L528 495V494L530 492V491L531 490V489L532 488V487L534 485V484L535 483V482L537 480V478L539 476V475L541 473V472L542 471V470L543 469V468L545 466V465L546 464V463L547 462V461L549 459V458L550 457V456L552 454V452L554 450V449L556 447V446L557 445V444L558 443V442L560 440V439L561 438V437L562 436V435L564 433V432L565 431V430L566 429V428L568 426V425L569 424V423L571 421V420L572 419V418L573 417V416L575 414V413L576 412V411L578 409V408L579 407V406L580 405V404L581 403V402L583 400V399L584 398V397L586 395V394L587 393V392L589 390V389L590 388V387L591 386V385L592 384V383L594 381V380L596 378V377L597 376V375L598 374V373L600 371V370L601 369V368L602 367V366L604 364V363L605 362V361L607 359V358L608 357V356L609 355V354L610 353V352L611 351V350L613 348V347L615 345V343L617 341V340L619 338V337L620 336V335L621 334V333L623 331V330L624 329V328L625 327V326L627 324V323L628 322V321L630 319V318L631 317V316L632 315V314L634 312V311L635 310V309L636 308V307L638 305V304L640 302V301L641 300V299L642 298V297L644 295V294L645 293V292L646 291V290L647 289V288L649 286V285L651 283V281L653 279V278L654 277V276L656 274V273L657 272V271L659 269V268L660 267V266L661 265V264L663 262V261L664 260V259L665 258V257L667 255V254L668 253V252L670 250V249L671 248V247L672 246V245L674 243V242L675 241V240L677 238V237L678 236V235L679 234V233L680 232V231L682 229V228L683 227V226L685 224V223L686 222V221L687 220V219L689 217V216L690 215V214L691 213V212L693 210V209L695 207V205L697 203V202L699 200V198L701 196V195L703 193V192L704 191V190L705 189V188L706 187V186L708 184V183L710 181V180L711 179V178L712 177V176L714 174V173L715 172V171L716 170V169L718 167V166L719 165V164L720 163V162L722 160V159L723 158V157L725 155V153L727 151V150L729 148V147L730 146V145L731 144V143L733 141V140L734 139V138L735 137V136L737 134V133L738 132V131L740 129V128L741 127V126L742 125V124L744 122V121L745 120V119L746 118V117L748 115V114L749 113V112L750 111V110L752 108V107L753 106V105L754 104V103L756 101V100L757 99V98L759 96V95L760 94V93L761 92V91L763 89V88L764 87V86L765 85V84L767 82V81L769 79V77L771 75V74L773 72V71L774 70V69L775 68V67L777 65V64L778 63V62L779 61V60L781 58V57L782 56V55L783 54V53L785 51V50L786 49V48L788 46V44L790 42V41L792 39V38L793 37V36L794 35V34L796 32V31L797 30V29L798 28V27L800 25V24L801 23V22L803 20V19L804 18V17L805 16V15L807 13V12L808 11V10L809 9V8L811 6V5L813 3H650L649 4V6L647 8V9L645 11V12L644 13V14L642 16V17L641 18V19L639 21V22L638 23V24L637 25V26L636 27V28L634 30V31L632 33V34L631 35V36L630 37V38L628 40V41L627 42V43L625 45V46L624 47V48L622 50V51L621 52V53L620 54V55L618 57V58L617 59V60L615 62V63L614 64V65L613 66V67L611 69V70L609 72V73L608 74V75L607 76V77L605 79V80L604 81V82L602 84V85L601 86V87L599 89V90L598 91V92L596 94V95L595 96V97L594 98V99L592 101V102L591 103V104L590 105V106L588 108V109L586 111V112L585 113V114L584 115V116L582 118V119L581 120V121L579 123V124L578 125V126L577 127V128L575 130V131L574 132V133L573 134V135L571 137V138L569 140V141L568 142V143L566 145V146L565 147V148L564 149V150L562 152V153L561 154V155L560 156V157L558 159V160L557 161V162L556 163V164L554 166V167L552 169V170L551 171V172L549 174V175L548 176V177L546 179V180L544 182V184L542 186V187L541 188V189L539 191V192L538 193V194L537 195V196L535 198V199L533 201V202L532 203V204L531 205V206L529 208V209L528 210V211L526 213V214L525 215V216L524 217V218L522 220V221L521 222V223L520 224V225L518 227V228L516 230V232L514 234V235L512 237V238L511 239V240L510 241V242L508 244V245L506 247V248L505 249V250L503 252V253L502 254V255L501 256V257L499 259V260L498 261V262L497 263V264L495 266V267L493 269V270L492 271V272L491 273V274L489 276V277L488 278V279L486 281V282L485 283V284L484 285V286L482 288V289L481 290V291L480 292V293L478 295V296L476 298V299L475 300V301L474 302V303L472 305V306L470 308V309L469 310V311L468 312V313L466 315V316L465 317V318L464 319V320L462 322V323L461 324V325L459 327V328L458 329V330L457 331V332L455 334V335L453 337V338L452 339V340L451 341V342L449 344V345L448 346V347L446 349V350L445 351V352L443 354V355L442 356V357L440 359V361L438 363V364L436 366V367L435 368V369L434 370V371L432 373V374L430 376V377L429 378V379L428 380V381L426 383V384L425 385V386L423 388V389L422 390V391L421 392V393L419 395V396L418 397V398L417 399V400L415 402V403L413 405V406L412 407V408L411 409V410L409 412V413L408 414V415L407 416H405L404 415V414L403 413V412L402 411V410L400 408V407L398 405V403L396 401V400L395 399V398L393 396V395L392 394V393L390 391V390L389 389V388L387 386V385L386 384V383L385 382V381L383 379V378L381 376V375L379 373V372L378 371V370L377 369V368L375 366V365L374 364V363L373 362V361L371 359V358L370 357V356L368 354V353L367 352V351L365 349V348L364 347V346L362 344V343L361 342V341L359 339V338L358 337V336L356 334V333L355 332V331L353 329V328L352 327V326L351 325V324L349 322V321L348 320V319L347 318V317L345 315V314L343 312V311L342 310V309L340 307V306L339 305V304L337 302V301L336 300V299L334 297V296L333 295V294L332 293V292L330 290V289L329 288V287L328 286V285L326 283V282L324 280V279L323 278V277L322 276V275L320 273V272L318 270V269L317 268V267L315 265V264L314 263V262L313 261V260L311 258V257L309 255V253L307 251V250L305 248V247L304 246V245L303 244V243L301 241V240L299 238V237L298 236V235L297 234V233L295 231V230L294 229V228L292 226V225L290 223V222L289 221V220L288 219V218L286 216V215L284 213V211L282 209V208L281 207V206L279 204V203L278 202V201L276 199V198L275 197V196L273 194V193L272 192V191L270 189V188L269 187V186L267 184V183L265 181V180L264 179V178L263 177V176L261 174V173L260 172V171L259 170V169L257 167V166L256 165V164L254 162V161L253 160V159L252 158V157L250 155V154L248 152V151L247 150V149L245 147V146L244 145V144L242 142V141L241 140V139L239 137V136L238 135V134L237 133V132L235 130V129L234 128V127L233 126V125L231 123V122L229 120V119L228 118V117L227 116V115L225 113V112L223 110V109L222 108V107L220 105V104L219 103V102L218 101V100L216 98V97L215 96V95L213 93V92L212 91V90L210 88V87L209 86V85L208 84V83L206 81V80L204 78V77L203 76V75L201 73V72L200 71V70L199 69V68L197 66V65L196 64V63L195 62V61L193 59V58L191 56V54L189 52V51L187 49V48L185 46V45L184 44V43L183 42V41L181 39V38L180 37V36L178 34V33L176 31V29L174 27V26L172 24V23L171 22V21L170 20V19L168 17V16L166 14V13L165 12V11L164 10V9L162 7V6L161 5V4L160 3H0Z" fill="#52C675"/>
<path d="M906 0L904 2V3L903 4V5L902 6V7L900 9V10L899 11V12L898 13V14L896 16V17L894 19V20L893 21V22L892 23V24L890 26V27L889 28V29L888 30V31L886 33V34L885 35V36L883 38V39L882 40V41L881 42V43L879 45V46L878 47V48L877 49V50L875 52V53L874 54V55L872 57V58L871 59V60L870 61V62L868 64V65L867 66V67L866 68V69L864 71V72L862 74V75L861 76V77L860 78V79L858 81V82L856 84V86L854 88V89L853 90V91L851 93V94L850 95V96L848 98V99L847 100V101L846 102V103L845 104V105L843 107V108L841 110V111L840 112V113L839 114V115L837 117V118L836 119V120L834 122V123L833 124V125L832 126V127L830 129V130L829 131V132L828 133V134L826 136V137L825 138V139L824 140V141L822 143V144L820 146V147L819 148V149L818 150V151L816 153V154L815 155V156L813 158V159L812 160V161L810 163V164L809 165V166L808 167V168L806 170V171L805 172V173L804 174V175L802 177V178L801 179V180L799 182V183L798 184V185L797 186V187L795 189V190L794 191V192L792 194V195L791 196V197L790 198V199L788 201V202L787 203V204L786 205V206L784 208V209L782 211V212L781 213V214L780 215V216L778 218V219L777 220V221L776 222V223L774 225V226L773 227V228L771 230V231L770 232V233L769 234V235L767 237V238L766 239V240L764 242V243L763 244V245L762 246V247L760 249V250L759 251V252L757 254V255L756 256V257L755 258V259L753 261V262L752 263V264L750 266V267L749 268V269L748 270V271L746 273V274L745 275V276L744 277V278L742 280V281L740 283V284L739 285V286L738 287V288L736 290V291L735 292V293L734 294V295L732 297V298L731 299V300L729 302V303L728 304V305L727 306V307L725 309V310L724 311V312L722 314V315L721 316V317L720 318V319L718 321V322L717 323V324L716 325V326L714 328V329L713 330V331L712 332V333L710 335V336L708 338V339L707 340V341L706 342V343L704 345V346L703 347V348L701 350V351L700 352V353L702 355V356L703 357V358L704 359V360L706 362V363L707 364V365L708 366V367L710 369V370L711 371V372L713 374V375L714 376V377L716 379V380L717 381V382L718 383V384L719 385V386L721 388V389L722 390V391L724 393V394L725 395V396L726 397V398L728 400V401L729 402V403L731 405V406L732 407V408L733 409V410L735 412V413L736 414V415L738 417V418L739 419V420L740 421V422L742 424V425L743 426V427L744 428V429L746 431V432L747 433V434L748 435V436L750 438V439L751 440V441L753 443V444L754 445V446L756 448V450L758 452V453L760 455V456L761 457V458L762 459V460L764 462V463L765 464V465L766 466V467L767 468V469L769 471V472L771 474V475L772 476V477L773 478V479L774 480V481L776 483V484L777 485V486L779 488V489L780 490V491L782 493V494L783 495V496L784 497V498L786 500V501L787 502V503L788 504V505L790 507V508L791 509V510L793 512V513L794 514V515L795 516V517L797 519V520L798 521V522L800 524V525L801 526V527L802 528V529L803 530V531L805 533V534L807 536V537L808 538V539L809 540V541L810 542V543L812 545V546L813 547V548L814 549V550L816 552V553L817 554V555L819 557V558L820 559V560L822 562V563L823 564V565L824 566V567L826 569V570L827 571V572L828 573V574L830 576V577L831 578V579L832 580V581L834 583V584L835 585V586L837 588V589L838 590V591L839 592V593L841 595V596L842 597V598L843 599V600L845 602V603L846 604V605L848 607V608L849 609V610L850 611V612L852 614V615L853 616V617L854 618V619L856 621V622L857 623V624L858 625V626L860 628V629L861 630V631L863 633V634L864 635V636L866 638V639L867 640V641L868 642V643L870 645V646L871 647V648L872 649V650L874 652V653L875 654V655L876 656V657L878 659V660L879 661V662L881 664V665L882 666V667L883 668V669L885 671V672L886 673V674L887 675V676L889 678V679L890 680V681L892 683V684L893 685V686L894 687V688L896 690V691L897 692V693L898 694V695L900 697V698L902 700V702L904 704V705L906 707V708L907 709V710L908 711V712L910 714V715L911 716V717L913 719V720L914 721V722L915 723V724L916 725V726L918 728V729L919 730V731L920 732V733L922 735V736L923 737V738L925 740V741L926 742V743L928 745V746L929 747V748L930 749V752L929 753V754L927 756V757L926 758V759L925 760V761L923 763V764L922 765V766L921 767V768L919 770V771L918 772V773L916 775V776L915 777V778L913 780V781L912 782V783L911 784V785L909 787V788L908 789V790L907 791V792L905 794V795L904 796V797L903 798V799L902 800V801L900 803V804L898 806V807L897 808V809L896 810V811L894 813V814L893 815V816L892 817V818L890 820V821L889 822V823L887 825V826L886 827V828L885 829V830L883 832V833L882 834V835L880 837V838L879 839V840L878 841V842L876 844V845L875 846V847L873 849V850L872 851V852L871 853V854L869 856V857L868 858V859L866 861V862L865 863V864L864 865V866L862 868V869L861 870V871L860 872V873L858 875V876L857 877V878L855 880V881L854 882V883L853 884V885L851 887V888L850 889V890L849 891V892L847 894V895L846 896V897L844 899V900L843 901V902L842 903V904L840 906V907L839 908V909L838 910V911L836 913V914L834 916V917L833 918V919L832 920V921L830 923V924L829 925V926L828 927V928L826 930V931L825 932V933L824 934V935L822 937V938L821 939V940L820 941V942L818 944V945L817 946V947L815 949V950L814 951V952L812 954V955L811 956V957L810 958V959L808 961V962L807 963V964L805 966V967L804 968V969L803 970V971L801 973V974L800 975V976L799 977V978L797 980V981L796 982V983L794 985V986L793 987V988L792 989V990L790 992V993L789 994V995L788 996V997L786 999V1000L785 1001V1002L784 1003V1004L782 1006V1007L781 1008V1009L779 1011V1012L778 1013V1014L777 1015V1016L775 1018V1019L774 1020V1021L773 1022V1023L771 1025V1026L770 1027V1028L768 1030V1031L767 1032V1033L765 1035V1036L764 1037L762 1035V1034L761 1033V1032L759 1030V1029L758 1028V1027L757 1026V1025L755 1023V1022L754 1021V1020L753 1019V1018L752 1017V1016L750 1014V1013L749 1012V1011L747 1009V1008L746 1007V1006L744 1004V1003L743 1002V1001L742 1000V999L741 998V997L739 995V994L738 993V992L737 991V990L735 988V987L734 986V985L733 984V983L731 981V980L729 978V977L728 976V975L727 974V973L726 972V971L724 969V968L723 967V966L721 964V963L720 962V961L719 960V959L718 958V957L716 955V954L715 953V952L713 950V949L712 948V947L711 946V945L709 943V942L708 941V940L707 939V938L705 936V935L704 934V933L703 932V931L701 929V928L700 927V926L698 924V923L697 922V921L695 919V917L693 915V914L692 913V912L690 910V909L689 908V907L687 905V904L686 903V902L685 901V900L684 899V898L682 896V895L681 894V893L679 891V890L678 889V888L677 887V886L675 884V883L674 882V881L672 879V878L671 877V876L670 875V874L668 872V871L667 870V869L666 868V867L665 866V865L663 863V862L662 861V860L661 859V858L659 856V855L658 854V853L657 852V851L655 849V848L654 847V846L653 845V844L651 842V841L649 839V838L648 837V836L647 835V834L645 832V831L644 830V829L643 828V827L641 825V824L640 823V822L639 821V820L637 818V817L636 816V815L635 814V813L633 811V810L632 809V808L631 807V806L629 804V803L628 802V801L626 799V798L625 797V796L624 795V794L622 792V791L621 790V789L620 788V787L618 785V784L617 783V782L616 781V780L615 779V778L613 776V773L615 771V770L616 769V768L617 767V766L619 764V763L620 762V761L621 760V759L623 757V756L624 755V754L626 752V751L627 750V749L628 748V747L630 745V744L631 743V742L632 741V740L634 738V737L635 736V735L637 733V732L638 731V730L639 729V728L641 726V725L642 724V723L644 721V720L645 719V718L647 716V715L648 714V713L649 712V711L651 709V708L652 707V706L653 705V704L655 702V701L656 700V699L657 698V697L659 695V694L660 693V692L662 690V689L663 688V687L664 686V685L666 683V682L667 681V680L669 678V677L670 676V675L672 673V672L673 671V670L674 669V668L676 666V665L677 664V663L678 662V661L680 659V658L681 657V656L683 654V653L684 652V651L685 650V649L687 647V646L688 645V644L689 643V642L691 640V639L689 637V636L688 635V634L687 633V632L685 630V629L684 628V627L683 626V625L681 623V622L680 621V620L679 619V618L677 616V615L676 614V613L675 612V611L674 610V609L672 607V606L671 605V604L670 603V602L668 600V599L667 598V597L666 596V595L665 594V593L663 591V590L662 589V588L661 587V586L659 584V583L658 582V581L657 580V579L655 577V576L654 575V574L653 573V572L652 571V570L650 568V567L649 566V565L647 563V561L645 559V558L644 557V556L643 555V554L641 552V551L640 550V549L639 548V547L637 545V544L636 543V542L635 541V540L633 538V537L632 536V535L631 534V533L629 531V529L627 527V526L626 525V524L625 523V522L623 520V519L622 518V517L621 516V515L619 513V512L618 511V510L617 509V508L615 506V505L614 504V503L613 502V501H612V502L611 503V504L610 505V506L609 507V508L607 510V511L606 512V513L604 515V516L603 517V518L602 519V520L601 521V522L599 524V525L598 526V527L597 528V529L596 530V531L594 533V534L593 535V536L591 538V539L590 540V541L589 542V543L588 544V545L586 547V548L585 549V550L584 551V552L582 554V555L581 556V557L580 558V559L578 561V562L577 563V564L576 565V566L575 567V568L573 570V571L572 572V573L571 574V575L569 577V578L568 579V580L567 581V582L565 584V585L564 586V587L562 589V591L560 593V594L558 596V597L557 598V599L556 600V601L555 602V603L554 604V605L552 607V608L551 609V610L550 611V612L548 614V615L547 616V617L546 618V619L544 621V622L543 623V624L542 625V626L540 628V629L539 630V631L538 632V633L537 634V635L535 637V638L534 639V640L532 642V643L531 644V645L530 646V647L529 648V649L527 651V652L526 653V654L524 656V657L523 658V659L522 660V661L520 663V664L519 665V666L518 667V668L517 669V670L516 671V672L514 674V675L513 676V677L512 678V679L510 681V682L509 683V684L507 686V687L506 688V689L505 690V691L503 693V694L502 695V696L501 697V698L500 699V700L498 702V703L497 704V705L496 706V707L494 709V710L493 711V712L492 713V714L490 716V717L489 718V719L487 721V723L484 726V728L482 730V731L481 732V733L480 734V735L478 737V738L477 739V740L476 741V742L475 743V744L474 745V746L472 748V749L471 750V751L470 752V753L468 755V756L467 757V758L466 759V760L464 762V763L463 764V765L462 766V767L460 769V770L459 771V772L458 773V774L457 775V776L455 778V779L454 780V781L455 782V783L456 784V785L457 786V787L458 788V789L460 791V792L461 793V794L462 795V796L464 798V799L465 800V801L466 802V803L468 805V806L469 807V808L470 809V810L472 812V813L474 815V816L475 817V818L476 819V820L478 822V823L479 824V825L480 826V827L482 829V830L484 832V834L486 836V837L487 838V839L488 840V841L490 843V844L491 845V846L493 848V849L494 850V851L495 852V853L497 855V856L498 857V858L500 860V861L501 862V863L502 864V865L503 866V867L505 869V870L506 871V872L508 874V875L509 876V877L510 878V879L512 881V882L513 883V884L514 885V886L516 888V889L517 890V891L518 892V893L520 895V896L521 897V898L523 900V901L524 902V903L525 904V905L526 906V907L528 909V910L529 911V912L531 914V915L532 916V917L533 918V919L535 921V922L536 923V924L538 926V927L539 928V929L540 930V931L542 933V934L543 935V936L544 937V938L546 940V941L547 942V943L548 944V945L550 947V948L551 949V950L552 951V952L554 954V955L555 956V957L557 959V960L558 961V962L560 964V965L561 966V967L562 968V969L564 971V972L565 973V974L567 976V977L568 978V979L569 980V981L571 983V985L573 987V988L575 990V991L576 992V993L577 994V995L579 997V998L580 999V1000L581 1001V1002L583 1004V1005L584 1006V1007L585 1008V1009L586 1010V1011L588 1013V1014L590 1016V1017L591 1018V1019L592 1020V1021L594 1023V1024L595 1025V1026L596 1027V1028L598 1030V1031L599 1032V1033L600 1034V1035L602 1037V1038L603 1039V1040L604 1041V1042L606 1044V1045L607 1046V1047L608 1048V1049L610 1051V1052L611 1053V1054L613 1056V1057L614 1058V1059L615 1060V1061L617 1063V1064L618 1065V1066L620 1068V1069L621 1070V1071L622 1072V1073L624 1075V1076L625 1077V1078L626 1079V1080L628 1082V1083L629 1084V1085L630 1086V1087L632 1089V1090L634 1092V1094L636 1096V1097L637 1098V1099L639 1101V1102L640 1103V1104L642 1106V1107L643 1108V1109L644 1110V1111L645 1112V1113L647 1115V1116L648 1117V1118L649 1119V1120L651 1122V1123L652 1124V1125L653 1126V1127L655 1129V1130L656 1131V1132L658 1134V1135L659 1136V1137L660 1138V1139L662 1141V1142L663 1143V1144L664 1145V1146L666 1148V1149L668 1151V1153L670 1155V1156L671 1157V1158L673 1160V1161L674 1162V1163L675 1164V1165L678 1168V1170L680 1172V1173L681 1174V1175L682 1176V1177L684 1179V1180L685 1181V1182L687 1184V1185L688 1186V1187L689 1188V1189L691 1191V1192L692 1193V1194L693 1195V1196L694 1197V1198L696 1200V1201L697 1202V1203L698 1204V1205L700 1207V1208L701 1209V1210L703 1212V1213L704 1214V1215L706 1217V1218L707 1219V1220L708 1221V1222L710 1224V1225L711 1226V1227L712 1228V1229L714 1231V1232L715 1233V1234L717 1236V1237L718 1238V1239L719 1240V1241L720 1242V1243L722 1245V1246L723 1247V1248L724 1249V1250L726 1252V1253L727 1254V1255L729 1257V1258L730 1259V1260L731 1261V1262L733 1264V1265L734 1266V1267L736 1269V1270L737 1271V1272L738 1273V1274L740 1276V1277L741 1278V1279L742 1280V1281L744 1283V1284L746 1286V1288L748 1290V1291L749 1292V1293L751 1295V1296L752 1297V1298L753 1299V1300L755 1302V1303L756 1304V1305L757 1306V1307L759 1309V1310L760 1311V1310L762 1308V1307L763 1306V1305L765 1303V1302L766 1301V1300L767 1299V1298L769 1296V1295L770 1294V1293L772 1291V1290L773 1289V1288L775 1286V1285L776 1284V1283L777 1282V1281L778 1280V1279L780 1277V1276L781 1275V1274L783 1272V1271L784 1270V1269L786 1267V1266L787 1265V1264L789 1262V1261L790 1260V1259L791 1258V1257L793 1255V1254L794 1253V1252L795 1251V1250L797 1248V1247L798 1246V1245L800 1243V1242L801 1241V1240L802 1239V1238L803 1237V1236L805 1234V1233L807 1231V1230L808 1229V1228L809 1227V1226L811 1224V1223L812 1222V1221L813 1220V1219L815 1217V1216L816 1215V1214L818 1212V1211L819 1210V1209L820 1208V1207L822 1205V1204L823 1203V1202L824 1201V1200L826 1198V1197L828 1195V1194L829 1193V1192L830 1191V1190L831 1189V1188L833 1186V1185L835 1183V1182L836 1181V1180L837 1179V1178L839 1176V1175L840 1174V1173L841 1172V1171L843 1169V1168L844 1167V1166L845 1165V1164L847 1162V1161L849 1159V1158L850 1157V1156L851 1155V1154L852 1153V1152L854 1150V1149L855 1148V1147L857 1145V1144L858 1143V1142L860 1140V1139L861 1138V1137L862 1136V1135L864 1133V1132L865 1131V1130L866 1129V1128L868 1126V1125L870 1123V1122L871 1121V1120L872 1119V1118L874 1116V1115L875 1114V1113L876 1112V1111L878 1109V1108L879 1107V1106L881 1104V1103L882 1102V1101L883 1100V1099L885 1097V1096L886 1095V1094L887 1093V1092L889 1090V1089L891 1087V1086L892 1085V1084L893 1083V1082L895 1080V1079L896 1078V1077L897 1076V1075L899 1073V1072L900 1071V1070L901 1069V1068L903 1066V1065L904 1064V1063L906 1061V1060L907 1059V1058L908 1057V1056L910 1054V1053L911 1052V1051L913 1049V1048L914 1047V1046L915 1045V1044L917 1042V1041L918 1040V1039L919 1038V1037L921 1035V1034L923 1032V1031L924 1030V1029L925 1028V1027L927 1025V1024L928 1023V1022L929 1021V1020L931 1018V1017L932 1016V1015L934 1013V1012L935 1011V1010L936 1009V1008L938 1006V1005L939 1004V1003L940 1002V1001L942 999V998L943 997V996L945 994V993L946 992V991L948 989V988L949 987V986L950 985V984L952 982V981L953 980V979L955 977V976L956 975V974L957 973V972L959 970V969L960 968V967L961 966V965L963 963V962L964 961V960L966 958V957L967 956V955L969 953V952L970 951V950L971 949V948L973 946V945L974 944V943L976 941V940L977 939V938L978 937V936L980 934V933L981 932V931L982 930V929L984 927V926L985 925V924L987 922V921L988 920V919L989 918V917L991 915V914L992 913V912L994 910V909L995 908V907L996 906V905L998 903V902L999 901V900L1001 898V897L1002 896V895L1004 893V892L1005 891V890L1006 889V888L1008 886V885L1009 884V883L1010 882V881L1012 879V878L1013 877V876L1015 874V873L1016 872V871L1017 870V869L1019 867V866L1020 865V864L1022 862V861L1023 860V859L1024 858V857L1026 855V854L1027 853V852L1029 850V849L1030 848V847L1031 846V845L1033 843V842L1035 840V839L1036 838V837L1037 836V835L1038 834V833L1039 832V831L1041 829V828L1043 826V825L1044 824V823L1045 822V821L1047 819V818L1048 817V816L1049 815V814L1051 812V811L1052 810V809L1054 807V806L1055 805V804L1057 802V801L1058 800V799L1059 798V797L1061 795V794L1062 793V792L1063 791V790L1065 788V787L1067 785V783L1069 781V780L1070 779V778L1072 776V775L1073 774V773L1075 771V770L1076 769V768L1077 767V766L1079 764V763L1080 762V761L1081 760V759L1083 757V756L1085 754V753L1086 752V751L1087 750V749L1089 747V745L1088 744V743L1087 742V741L1085 739V738L1084 737V736L1083 735V734L1081 732V731L1079 729V728L1078 727V726L1077 725V724L1076 723V722L1074 720V719L1073 718V717L1071 715V714L1070 713V712L1069 711V710L1067 708V707L1066 706V705L1064 703V702L1063 701V700L1062 699V698L1060 696V695L1059 694V693L1057 691V690L1056 689V688L1054 686V685L1053 684V683L1052 682V681L1050 679V678L1049 677V676L1047 674V673L1046 672V671L1045 670V669L1043 667V666L1042 665V664L1040 662V661L1039 660V659L1037 657V656L1036 655V654L1035 653V652L1033 650V649L1031 647V646L1030 645V644L1029 643V642L1028 641V640L1026 638V637L1025 636V635L1024 634V633L1022 631V630L1021 629V628L1019 626V625L1018 624V623L1016 621V620L1015 619V618L1014 617V616L1012 614V613L1011 612V611L1009 609V608L1008 607V606L1007 605V604L1005 602V601L1004 600V599L1002 597V596L1001 595V594L999 592V591L998 590V589L997 588V587L996 586V585L993 582V581L992 580V579L991 578V577L989 575V574L988 573V572L987 571V570L986 569V568L984 566V565L982 563V562L981 561V560L980 559V558L978 556V555L977 554V553L976 552V551L974 549V548L973 547V546L971 544V543L970 542V541L969 540V539L967 537V536L966 535V534L965 533V532L963 530V529L961 527V525L959 523V522L957 520V519L956 518V517L955 516V515L953 513V512L952 511V510L951 509V508L949 506V505L947 503V502L946 501V500L945 499V498L943 496V495L942 494V493L940 491V490L939 489V488L938 487V486L936 484V483L935 482V481L933 479V478L932 477V476L931 475V474L929 472V471L928 470V469L927 468V467L925 465V464L923 462V461L922 460V459L921 458V457L919 455V454L918 453V452L917 451V450L915 448V447L914 446V445L912 443V442L911 441V440L910 439V438L908 436V435L907 434V433L905 431V430L904 429V428L902 426V425L901 424V423L900 422V421L898 419V418L897 417V416L896 415V414L894 412V411L893 410V409L891 407V406L890 405V404L889 403V402L887 400V399L886 398V397L884 395V394L883 393V392L881 390V389L880 388V387L879 386V385L877 383V382L876 381V380L875 379V378L873 376V375L872 374V373L870 371V370L869 369V368L868 367V366L866 364V363L864 361V360L863 359V358L862 357V356L860 354V351L861 350V349L863 347V346L864 345V344L865 343V342L867 340V339L868 338V337L869 336V335L870 334V333L872 331V330L873 329V328L874 327V326L876 324V323L877 322V321L879 319V318L880 317V316L881 315V314L883 312V311L884 310V309L885 308V307L887 305V303L889 301V300L890 299V298L892 296V295L893 294V293L894 292V291L896 289V288L897 287V286L898 285V284L900 282V280L902 278V277L904 275V274L905 273V272L906 271V270L907 269V268L909 266V265L910 264V263L912 261V260L913 259V258L914 257V256L916 254V253L917 252V251L919 249V247L921 245V244L922 243V242L923 241V240L925 238V237L926 236V235L927 234V233L929 231V230L930 229V228L931 227V226L932 225V224L934 222V221L935 220V219L937 217V216L938 215V214L939 213V212L940 211V210L942 208V207L943 206V205L945 203V202L946 201V200L947 199V198L949 196V195L950 194V193L951 192V191L952 190V189L953 188V187L955 185V184L957 182V180L959 178V177L961 175V174L962 173V172L963 171V170L964 169V168L965 167V166L967 164V163L968 162V161L969 160V159L971 157V156L973 154V152L975 150V149L976 148V147L978 145V144L979 143V142L980 141V140L982 138V137L983 136V135L984 134V133L986 131V130L987 129V128L988 127V126L990 124V123L992 121H1037L1038 122H1113L1114 123H1254L1255 124H1290L1292 126L1290 128V129L1289 130V131L1288 132V133L1286 135V136L1285 137V138L1283 140V141L1282 142V143L1280 145V146L1279 147V148L1278 149V150L1276 152V153L1275 154V155L1273 157V158L1272 159V160L1271 161V162L1269 164V165L1268 166V167L1267 168V169L1265 171V172L1264 173V174L1262 176V177L1261 178V179L1259 181V182L1258 183V184L1256 186V187L1255 188V189L1254 190V191L1252 193V194L1251 195V196L1250 197V198L1248 200V201L1247 202V203L1245 205V206L1244 207V208L1243 209V210L1241 212V213L1240 214V215L1238 217V218L1237 219V220L1236 221V222L1235 223V224L1233 226V227L1232 228V229L1230 231V232L1229 233V234L1227 236V237L1226 238V239L1225 240V241L1223 243V244L1222 245V246L1220 248V249L1219 250V251L1218 252V253L1216 255V256L1215 257V258L1213 260V261L1212 262V263L1211 264V265L1210 266V267L1208 269V270L1206 272V273L1205 274V275L1203 277V278L1202 279V280L1201 281V282L1199 284V285L1198 286V287L1197 288V289L1195 291V292L1194 293V294L1193 295V296L1191 298V299L1190 300V301L1189 302V303L1187 305V306L1185 308V309L1184 310V311L1183 312V313L1181 315V316L1180 317V318L1179 319V320L1177 322V323L1176 324V325L1174 327V328L1173 329V330L1172 331V332L1170 334V335L1169 336V337L1168 338V339L1166 341V342L1165 343V344L1163 346V347L1162 348V349L1160 351V352L1159 353V354L1158 355V356L1156 358V359L1155 360V361L1153 363V364L1152 365V366L1151 367V368L1149 370V371L1148 372V373L1147 374V375L1145 377V378L1144 379V380L1142 382V383L1141 384V385L1140 386V387L1138 389V390L1137 391V392L1135 394V395L1134 396V397L1132 399V400L1131 401V402L1130 403V404L1128 406V407L1127 408V409L1126 410V411L1124 413V414L1123 415V416L1121 418V419L1120 420V421L1119 422V423L1117 425V426L1116 427V428L1114 430V431L1113 432V433L1112 434V435L1110 437V438L1109 439V440L1107 442V443L1106 444V445L1105 446V447L1103 449V450L1102 451V452L1100 454V455L1099 456V457L1098 458V459L1097 460V462L1098 463V464L1099 465V466L1101 468V469L1102 470V471L1103 472V473L1104 474V475L1106 477V478L1107 479V480L1108 481V482L1110 484V485L1111 486V487L1112 488V489L1114 491V492L1115 493V494L1116 495V496L1118 498V499L1119 500V501L1120 502V503L1121 504V505L1123 507V508L1124 509V510L1126 512V514L1128 516V517L1129 518V519L1131 521V522L1132 523V524L1133 525V526L1134 527V528L1136 530V531L1138 533V535L1140 537V538L1141 539V540L1142 541V542L1144 544V545L1145 546V547L1146 548V549L1148 551V552L1149 553V554L1150 555V556L1151 557V558L1153 560V561L1154 562V563L1155 564V565L1157 567V568L1158 569V570L1159 571V572L1160 573V574L1162 576V577L1163 578V579L1164 580V581L1166 583V584L1167 585V586L1168 587V588L1170 590V591L1171 592V593L1172 594V595L1174 597V598L1175 597V596L1176 595V594L1178 592V591L1179 590V589L1181 587V586L1182 585V584L1184 582V581L1185 580V579L1186 578V577L1187 576V575L1189 573V572L1190 571V570L1191 569V568L1193 566V565L1194 564V563L1196 561V560L1197 559V558L1199 556V555L1200 554V553L1201 552V551L1203 549V548L1204 547V546L1205 545V544L1207 542V541L1208 540V539L1210 537V536L1211 535V534L1212 533V532L1214 530V529L1215 528V527L1216 526V525L1218 523V522L1219 521V520L1221 518V517L1222 516V515L1223 514V513L1225 511V510L1226 509V508L1228 506V505L1229 504V503L1230 502V501L1232 499V498L1233 497V496L1234 495V494L1236 492V491L1237 490V489L1239 487V486L1240 485V484L1241 483V482L1243 480V479L1244 478V477L1245 476V475L1247 473V472L1248 471V470L1249 469V468L1251 466V465L1253 463V462L1254 461V460L1255 459V458L1256 457V456L1258 454V453L1259 452V451L1260 450V449L1262 447V446L1263 445V444L1265 442V441L1266 440V439L1268 437V436L1269 435V434L1270 433V432L1271 431V430L1273 428V427L1274 426V425L1275 424V423L1277 421V420L1278 419V418L1280 416V415L1281 414V413L1283 411V410L1284 409V408L1285 407V406L1286 405V404L1288 402V401L1289 400V399L1291 397V396L1292 395V394L1294 392V391L1295 390V389L1296 388V387L1298 385V384L1299 383V382L1301 380V379L1302 378V377L1303 376V375L1305 373V372L1306 371V370L1307 369V368L1309 366V365L1310 364V363L1311 362V361L1313 359V358L1315 356V355L1316 354V353L1317 352V351L1318 350V349L1320 347V346L1321 345V344L1322 343V342L1324 340V339L1325 338V337L1326 336V335L1328 333V332L1330 330V329L1331 328V327L1332 326V325L1334 323V322L1335 321V320L1336 319V318L1338 316V315L1339 314V313L1340 312V311L1342 309V308L1343 307V306L1345 304V303L1346 302V301L1347 300V299L1349 297V296L1350 295V294L1351 293V292L1353 290V289L1354 288V287L1355 286V285L1357 283V282L1358 281V280L1360 278V277L1361 276V275L1362 274V273L1364 271V270L1365 269V268L1367 266V265L1368 264V263L1369 262V261L1371 259V258L1372 257V256L1373 255V254L1375 252V251L1376 250V249L1378 247V246L1379 245V244L1380 243V242L1381 241V240L1383 238V237L1385 235V234L1386 233V232L1387 231V230L1389 228V227L1391 225V223L1393 221V220L1394 219V218L1395 217V216L1397 214V213L1398 212V211L1400 209V208L1401 207V206L1402 205V204L1404 202V201L1405 200V199L1407 197V196L1408 195V194L1409 193V192L1411 190V189L1412 188V187L1414 185V184L1415 183V182L1416 181V180L1417 179V178L1419 176V175L1420 174V173L1422 171V170L1423 169V168L1425 166V164L1427 162V161L1429 159V158L1430 157V156L1431 155V154L1433 152V151L1434 150V149L1435 148V147L1437 145V144L1438 143V142L1440 140V139L1441 138V137L1442 136V135L1444 133V132L1445 131V130L1446 129V128L1448 126V125L1449 124V123L1451 121V120L1452 119V118L1453 117V116L1455 114V113L1456 112V111L1457 110V109L1459 107V106L1460 105V104L1461 103V102L1463 100V99L1464 98V97L1466 95V94L1467 93V92L1469 90V88L1471 86V85L1473 83V82L1474 81V80L1475 79V78L1477 76V75L1478 74V73L1479 72V71L1480 70V69L1482 67V66L1484 64V63L1485 62V61L1486 60V59L1488 57V56L1489 55V54L1490 53V52L1492 50V49L1493 48V47L1495 45V44L1496 43V42L1497 41V40L1499 38V37L1500 36V35L1501 34V33L1503 31V30L1504 29V28L1506 26V25L1507 24V23L1509 21V20L1510 19V18L1511 17V16L1513 14V13L1514 12V11L1515 10V9L1516 8V7L1518 5V4L1519 3V2L1520 1V0H906Z" fill="#5DE0E8"/>
</svg>
